<mxfile host="app.diagrams.net" modified="2023-07-31T14:21:08.330Z" agent="Mozilla/5.0 (Windows NT 10.0; Win64; x64) AppleWebKit/537.36 (KHTML, like Gecko) Chrome/115.0.0.0 Safari/537.36" etag="aPGjBtxLk4Ew9WMgdV7z" version="21.6.6" type="device">
  <diagram name="Page-1" id="LWM2rfk6ImQMaWN5cWCv">
    <mxGraphModel dx="1376" dy="768" grid="1" gridSize="10" guides="1" tooltips="1" connect="1" arrows="1" fold="1" page="1" pageScale="1" pageWidth="850" pageHeight="1100" background="#ffffff" math="0" shadow="0">
      <root>
        <mxCell id="0" />
        <mxCell id="1" parent="0" />
        <mxCell id="LlFreaWX4vf09kDM4j5F-1" value="Function: l_cc_runRecirculation&#xa;&#xa;&#xa;&#xa;Description:&#xa;    This function sets the pwm data to either 1 (open), if recirculation is on, or 0 (off) when it is off&#xa;&#xa;&#xa;&#xa;Parameters In:&#xa;    recirculation: bool&#xa;&#xa;&#xa;&#xa;Parameters Out:&#xa;    None&#xa;&#xa;&#xa;&#xa;Return Value:&#xa;    None" style="text;whiteSpace=wrap;labelBackgroundColor=none;" vertex="1" parent="1">
          <mxGeometry x="460" y="10" width="380" height="440" as="geometry" />
        </mxCell>
        <mxCell id="LlFreaWX4vf09kDM4j5F-3" style="edgeStyle=orthogonalEdgeStyle;rounded=0;orthogonalLoop=1;jettySize=auto;html=1;" edge="1" parent="1" source="LlFreaWX4vf09kDM4j5F-2" target="LlFreaWX4vf09kDM4j5F-4">
          <mxGeometry relative="1" as="geometry">
            <mxPoint x="230" y="370" as="targetPoint" />
          </mxGeometry>
        </mxCell>
        <mxCell id="LlFreaWX4vf09kDM4j5F-2" value="" style="ellipse;whiteSpace=wrap;html=1;" vertex="1" parent="1">
          <mxGeometry x="170" y="150" width="120" height="80" as="geometry" />
        </mxCell>
        <mxCell id="LlFreaWX4vf09kDM4j5F-5" style="edgeStyle=orthogonalEdgeStyle;rounded=0;orthogonalLoop=1;jettySize=auto;html=1;" edge="1" parent="1" source="LlFreaWX4vf09kDM4j5F-4" target="LlFreaWX4vf09kDM4j5F-6">
          <mxGeometry relative="1" as="geometry">
            <mxPoint x="230" y="470" as="targetPoint" />
          </mxGeometry>
        </mxCell>
        <mxCell id="LlFreaWX4vf09kDM4j5F-4" value="call&amp;nbsp;l_cc_runRecirculation" style="rounded=1;whiteSpace=wrap;html=1;" vertex="1" parent="1">
          <mxGeometry x="140" y="330" width="180" height="60" as="geometry" />
        </mxCell>
        <mxCell id="LlFreaWX4vf09kDM4j5F-7" value="yes" style="edgeStyle=orthogonalEdgeStyle;rounded=0;orthogonalLoop=1;jettySize=auto;html=1;" edge="1" parent="1" source="LlFreaWX4vf09kDM4j5F-6" target="LlFreaWX4vf09kDM4j5F-8">
          <mxGeometry relative="1" as="geometry">
            <mxPoint x="390" y="485" as="targetPoint" />
          </mxGeometry>
        </mxCell>
        <mxCell id="LlFreaWX4vf09kDM4j5F-11" value="no" style="edgeStyle=orthogonalEdgeStyle;rounded=0;orthogonalLoop=1;jettySize=auto;html=1;" edge="1" parent="1" source="LlFreaWX4vf09kDM4j5F-6" target="LlFreaWX4vf09kDM4j5F-12">
          <mxGeometry relative="1" as="geometry">
            <mxPoint x="240" y="670" as="targetPoint" />
          </mxGeometry>
        </mxCell>
        <mxCell id="LlFreaWX4vf09kDM4j5F-6" value="if recirculation is on" style="rhombus;whiteSpace=wrap;html=1;" vertex="1" parent="1">
          <mxGeometry x="165" y="430" width="130" height="110" as="geometry" />
        </mxCell>
        <mxCell id="LlFreaWX4vf09kDM4j5F-9" style="edgeStyle=orthogonalEdgeStyle;rounded=0;orthogonalLoop=1;jettySize=auto;html=1;" edge="1" parent="1" source="LlFreaWX4vf09kDM4j5F-8" target="LlFreaWX4vf09kDM4j5F-10">
          <mxGeometry relative="1" as="geometry">
            <mxPoint x="490" y="560" as="targetPoint" />
          </mxGeometry>
        </mxCell>
        <mxCell id="LlFreaWX4vf09kDM4j5F-8" value="set pwm Data input 3 to START_RECIRCULATION" style="rounded=1;whiteSpace=wrap;html=1;" vertex="1" parent="1">
          <mxGeometry x="400" y="455" width="180" height="60" as="geometry" />
        </mxCell>
        <mxCell id="LlFreaWX4vf09kDM4j5F-19" style="edgeStyle=orthogonalEdgeStyle;rounded=0;orthogonalLoop=1;jettySize=auto;html=1;entryX=0.5;entryY=0;entryDx=0;entryDy=0;" edge="1" parent="1" source="LlFreaWX4vf09kDM4j5F-10" target="LlFreaWX4vf09kDM4j5F-21">
          <mxGeometry relative="1" as="geometry">
            <mxPoint x="650" y="770" as="targetPoint" />
          </mxGeometry>
        </mxCell>
        <mxCell id="LlFreaWX4vf09kDM4j5F-10" value="print &quot;recirculation on&quot;" style="rounded=1;whiteSpace=wrap;html=1;" vertex="1" parent="1">
          <mxGeometry x="430" y="550" width="120" height="60" as="geometry" />
        </mxCell>
        <mxCell id="LlFreaWX4vf09kDM4j5F-13" value="yes" style="edgeStyle=orthogonalEdgeStyle;rounded=0;orthogonalLoop=1;jettySize=auto;html=1;" edge="1" parent="1" source="LlFreaWX4vf09kDM4j5F-12" target="LlFreaWX4vf09kDM4j5F-14">
          <mxGeometry relative="1" as="geometry">
            <mxPoint x="420" y="715" as="targetPoint" />
          </mxGeometry>
        </mxCell>
        <mxCell id="LlFreaWX4vf09kDM4j5F-17" value="no" style="edgeStyle=orthogonalEdgeStyle;rounded=0;orthogonalLoop=1;jettySize=auto;html=1;exitX=0.5;exitY=1;exitDx=0;exitDy=0;" edge="1" parent="1" source="LlFreaWX4vf09kDM4j5F-12" target="LlFreaWX4vf09kDM4j5F-18">
          <mxGeometry relative="1" as="geometry">
            <mxPoint x="230" y="890" as="targetPoint" />
          </mxGeometry>
        </mxCell>
        <mxCell id="LlFreaWX4vf09kDM4j5F-12" value="pwmData input 3 gets STOP_RECIRCULATION" style="rhombus;whiteSpace=wrap;html=1;" vertex="1" parent="1">
          <mxGeometry x="150" y="650" width="160" height="130" as="geometry" />
        </mxCell>
        <mxCell id="LlFreaWX4vf09kDM4j5F-15" style="edgeStyle=orthogonalEdgeStyle;rounded=0;orthogonalLoop=1;jettySize=auto;html=1;" edge="1" parent="1" source="LlFreaWX4vf09kDM4j5F-14" target="LlFreaWX4vf09kDM4j5F-16">
          <mxGeometry relative="1" as="geometry">
            <mxPoint x="480" y="810" as="targetPoint" />
          </mxGeometry>
        </mxCell>
        <mxCell id="LlFreaWX4vf09kDM4j5F-14" value="set pwmData input 3 to STOP_RECIRCULATION" style="rounded=1;whiteSpace=wrap;html=1;" vertex="1" parent="1">
          <mxGeometry x="400" y="685" width="180" height="60" as="geometry" />
        </mxCell>
        <mxCell id="LlFreaWX4vf09kDM4j5F-20" style="edgeStyle=orthogonalEdgeStyle;rounded=0;orthogonalLoop=1;jettySize=auto;html=1;exitX=1;exitY=0.5;exitDx=0;exitDy=0;" edge="1" parent="1" source="LlFreaWX4vf09kDM4j5F-16" target="LlFreaWX4vf09kDM4j5F-21">
          <mxGeometry relative="1" as="geometry">
            <mxPoint x="610" y="810" as="targetPoint" />
          </mxGeometry>
        </mxCell>
        <mxCell id="LlFreaWX4vf09kDM4j5F-16" value="print &quot;recirculation off&quot;" style="rounded=1;whiteSpace=wrap;html=1;" vertex="1" parent="1">
          <mxGeometry x="430" y="780" width="120" height="60" as="geometry" />
        </mxCell>
        <mxCell id="LlFreaWX4vf09kDM4j5F-23" style="edgeStyle=orthogonalEdgeStyle;rounded=0;orthogonalLoop=1;jettySize=auto;html=1;" edge="1" parent="1" source="LlFreaWX4vf09kDM4j5F-18" target="LlFreaWX4vf09kDM4j5F-24">
          <mxGeometry relative="1" as="geometry">
            <mxPoint x="240" y="950" as="targetPoint" />
          </mxGeometry>
        </mxCell>
        <mxCell id="LlFreaWX4vf09kDM4j5F-18" value="" style="rhombus;whiteSpace=wrap;html=1;" vertex="1" parent="1">
          <mxGeometry x="205" y="860" width="50" height="50" as="geometry" />
        </mxCell>
        <mxCell id="LlFreaWX4vf09kDM4j5F-22" style="edgeStyle=orthogonalEdgeStyle;rounded=0;orthogonalLoop=1;jettySize=auto;html=1;entryX=1;entryY=0.5;entryDx=0;entryDy=0;" edge="1" parent="1" source="LlFreaWX4vf09kDM4j5F-21" target="LlFreaWX4vf09kDM4j5F-18">
          <mxGeometry relative="1" as="geometry">
            <Array as="points">
              <mxPoint x="650" y="885" />
            </Array>
          </mxGeometry>
        </mxCell>
        <mxCell id="LlFreaWX4vf09kDM4j5F-21" value="" style="rhombus;whiteSpace=wrap;html=1;" vertex="1" parent="1">
          <mxGeometry x="625" y="790" width="50" height="40" as="geometry" />
        </mxCell>
        <mxCell id="LlFreaWX4vf09kDM4j5F-24" value="" style="ellipse;whiteSpace=wrap;html=1;" vertex="1" parent="1">
          <mxGeometry x="170" y="970" width="120" height="80" as="geometry" />
        </mxCell>
      </root>
    </mxGraphModel>
  </diagram>
</mxfile>
